<?xml version="1.0" encoding="UTF-8"?>
<svg id="Ebene_1" data-name="Ebene 1" xmlns="http://www.w3.org/2000/svg" xmlns:xlink="http://www.w3.org/1999/xlink" viewBox="0 0 1101 732">
  <defs>
    <style>
      .cls-1 {
        fill: url(#Unbenannter_Verlauf_116);
      }

      .cls-2 {
        fill: url(#Neues_Verlaufsfeld_1);
      }

      .cls-3 {
        fill: #c36241;
      }

      .cls-4 {
        fill: url(#Unbenannter_Verlauf_123);
      }

      .cls-5 {
        fill: #1e2229;
      }

      .cls-6 {
        fill: #8ab396;
      }

      .cls-7 {
        fill: #4a5c4e;
      }
    </style>
    <linearGradient id="Neues_Verlaufsfeld_1" data-name="Neues Verlaufsfeld 1" x1="381.15" y1="171.74" x2="737.82" y2="171.74" gradientUnits="userSpaceOnUse">
      <stop offset="0" stop-color="#8ab396"/>
      <stop offset="1" stop-color="#4a5c4e"/>
    </linearGradient>
    <linearGradient id="Unbenannter_Verlauf_116" data-name="Unbenannter Verlauf 116" x1="400.37" y1="330.89" x2="690.58" y2="330.89" gradientUnits="userSpaceOnUse">
      <stop offset="0" stop-color="#8ab396"/>
      <stop offset="1" stop-color="#4a5c4e"/>
    </linearGradient>
    <linearGradient id="Unbenannter_Verlauf_123" data-name="Unbenannter Verlauf 123" x1="889.59" y1="566.02" x2="973.83" y2="566.02" gradientUnits="userSpaceOnUse">
      <stop offset="0" stop-color="#8ab396"/>
      <stop offset="1" stop-color="#4a5c4e"/>
    </linearGradient>
  </defs>
  <g>
    <path class="cls-2" d="M589.71,305.9l-45.5-21.13c-16.59-7.7-32.22-14.83-49.8-20.13-33.61-10.15-68.61-9.73-101.8,3.67-36.03-95.97,16.02-200.68,111.99-233.18,36.43-11.14,75.38-11.94,111.6.47,100.22,34.33,150.77,150,104.09,246.32-32.86,39.54-83.54,42.67-130.57,23.99ZM617.31,199.2l47.61-.15.16,100.11c17.91-4.56,35.36-13.29,43.97-29.38,8.29-15.5,11.46-32.79,13.05-50.31,7.09-78.01-43.89-151.46-119.19-171.85-81.68-22.13-165.9,21.26-196.02,100.15-12.58,32.03-13.94,67-4.87,101.49,27.34-8.3,54.85-8.8,83.64-2.66l-.07-116.75,41.59,11.77,89.59,25.96.54,31.61ZM568.03,279.53l.12-80.05,34.07-.53.32-19.57-102.25-30.33.09,86.22.07,15.49,15.63,5.28,51.95,23.5ZM650.43,300.78l-.04-86.25h-67.94s-.09,71.68-.09,71.68l29.66,10.97c12.52,3.28,25.07,5.51,38.41,3.61Z"/>
    <path class="cls-1" d="M581.12,324.08c34.02,16.03,77.58,17.3,109.46,2.25-41.89,46.1-101.28,65.87-162.24,55.52-53.79-9.14-103.05-45.29-127.98-96.73,27.31-9.62,55.47-10.13,83-3.02,19.31,4.99,36.52,13.13,54.49,21.6l43.27,20.39ZM577,338.91l-39.97-18.87c-35.94-17.8-71.73-33.92-113.62-25.3,44.13,70.36,134.85,94.35,208.4,57.59-19.98-2.34-37.08-5.54-54.81-13.43Z"/>
  </g>
  <g>
    <path d="M146.48,678.84h-8.98v-29.09h9.38c2.82,0,5.24.58,7.24,1.74,2.01,1.16,3.55,2.82,4.62,4.99,1.07,2.16,1.6,4.75,1.6,7.76s-.54,5.64-1.62,7.82c-1.08,2.18-2.65,3.86-4.72,5.03-2.06,1.17-4.57,1.75-7.53,1.75ZM141.02,675.71h5.23c2.41,0,4.4-.46,5.98-1.39,1.58-.93,2.76-2.25,3.54-3.96.78-1.71,1.16-3.75,1.16-6.12s-.38-4.37-1.15-6.07c-.77-1.7-1.91-3.01-3.44-3.92-1.52-.91-3.42-1.37-5.7-1.37h-5.62v22.84Z"/>
    <path d="M169.56,678.84h-3.69l10.68-29.09h3.64l10.68,29.09h-3.69l-8.69-24.49h-.23l-8.69,24.49ZM170.93,667.47h14.89v3.12h-14.89v-3.12Z"/>
    <path d="M213.45,657.02c-.17-1.44-.86-2.56-2.07-3.35-1.21-.79-2.7-1.19-4.46-1.19-1.29,0-2.41.21-3.37.62-.96.42-1.71.99-2.24,1.72-.54.73-.8,1.56-.8,2.49,0,.78.19,1.44.56,2,.37.55.85,1.01,1.44,1.38.59.36,1.2.66,1.85.89.64.23,1.24.42,1.78.56l2.95.79c.76.2,1.6.47,2.54.82.93.35,1.83.83,2.68,1.43.86.6,1.56,1.37,2.12,2.31s.84,2.09.84,3.45c0,1.57-.41,2.99-1.23,4.26-.82,1.27-2.01,2.28-3.58,3.03-1.57.75-3.47,1.12-5.7,1.12-2.08,0-3.88-.34-5.41-1.01-1.52-.67-2.71-1.61-3.58-2.81-.87-1.2-1.36-2.6-1.47-4.19h3.64c.09,1.1.47,2,1.12,2.72.65.72,1.47,1.25,2.47,1.59,1,.35,2.08.52,3.23.52,1.34,0,2.55-.22,3.62-.66s1.92-1.06,2.54-1.85c.62-.79.94-1.72.94-2.78,0-.97-.27-1.75-.81-2.36-.54-.61-1.25-1.1-2.13-1.48-.88-.38-1.83-.71-2.86-.99l-3.58-1.02c-2.27-.65-4.07-1.59-5.4-2.8-1.33-1.21-1.99-2.8-1.99-4.76,0-1.63.44-3.05,1.33-4.27.88-1.22,2.08-2.16,3.58-2.84,1.5-.68,3.18-1.02,5.04-1.02s3.54.33,5,1c1.46.67,2.62,1.58,3.47,2.73s1.31,2.47,1.36,3.93h-3.41Z"/>
    <path d="M261.61,649.75v29.09h-3.41l-15.85-22.84h-.28v22.84h-3.52v-29.09h3.41l15.91,22.9h.28v-22.9h3.47Z"/>
    <path d="M270.77,678.84v-29.09h17.56v3.12h-14.03v9.83h13.12v3.12h-13.12v9.89h14.26v3.12h-17.78Z"/>
    <path d="M315.9,649.75h3.52v19.26c0,1.99-.47,3.76-1.4,5.32s-2.25,2.78-3.94,3.68c-1.7.89-3.68,1.34-5.97,1.34s-4.27-.45-5.97-1.34-3.01-2.12-3.94-3.68-1.4-3.33-1.4-5.32v-19.26h3.52v18.98c0,1.42.31,2.68.94,3.79s1.52,1.97,2.68,2.6,2.55.94,4.17.94,3.01-.31,4.18-.94,2.06-1.5,2.68-2.6c.62-1.1.93-2.37.93-3.79v-18.98Z"/>
    <path d="M328.59,678.84v-29.09h17.56v3.12h-14.03v9.83h13.12v3.12h-13.12v9.89h14.26v3.12h-17.78Z"/>
    <path d="M368,678.84v-29.09h3.52v12.95h15.51v-12.95h3.52v29.09h-3.52v-13.01h-15.51v13.01h-3.52Z"/>
    <path d="M399.72,678.84v-29.09h17.56v3.12h-14.03v9.83h13.12v3.12h-13.12v9.89h14.26v3.12h-17.78Z"/>
    <path d="M425.76,678.84v-29.09h9.83c2.27,0,4.14.39,5.6,1.16,1.46.77,2.54,1.83,3.24,3.17s1.05,2.87,1.05,4.59-.35,3.23-1.05,4.56c-.7,1.33-1.78,2.36-3.22,3.12-1.45.75-3.3,1.13-5.55,1.13h-7.96v-3.18h7.84c1.55,0,2.8-.23,3.76-.68.95-.45,1.64-1.1,2.07-1.94.43-.84.65-1.84.65-3s-.22-2.18-.65-3.05-1.13-1.55-2.09-2.02c-.96-.48-2.22-.72-3.79-.72h-6.19v25.97h-3.52ZM439.46,665.77l7.16,13.07h-4.09l-7.05-13.07h3.98Z"/>
    <path d="M452.48,678.84v-2.56l15.68-23.41h-15.85v-3.12h20.06v2.56l-15.68,23.41h15.85v3.12h-20.06Z"/>
    <path d="M495.13,678.84h-3.69l10.68-29.09h3.64l10.68,29.09h-3.69l-8.69-24.49h-.23l-8.69,24.49ZM496.5,667.47h14.89v3.12h-14.89v-3.12Z"/>
    <path d="M546.17,649.75v29.09h-3.41l-15.85-22.84h-.28v22.84h-3.52v-29.09h3.41l15.91,22.9h.28v-22.9h3.47Z"/>
    <path d="M577.69,678.84h-8.98v-29.09h9.38c2.82,0,5.24.58,7.24,1.74,2.01,1.16,3.55,2.82,4.62,4.99,1.07,2.16,1.6,4.75,1.6,7.76s-.54,5.64-1.62,7.82c-1.08,2.18-2.65,3.86-4.72,5.03-2.06,1.17-4.57,1.75-7.53,1.75ZM572.23,675.71h5.23c2.41,0,4.4-.46,5.98-1.39,1.58-.93,2.76-2.25,3.54-3.96.78-1.71,1.16-3.75,1.16-6.12s-.38-4.37-1.15-6.07c-.77-1.7-1.91-3.01-3.44-3.92-1.52-.91-3.42-1.37-5.7-1.37h-5.62v22.84Z"/>
    <path d="M599.58,678.84v-29.09h17.56v3.12h-14.03v9.83h13.12v3.12h-13.12v9.89h14.26v3.12h-17.78Z"/>
    <path d="M625.62,678.84v-29.09h9.83c2.27,0,4.14.39,5.6,1.16,1.46.77,2.54,1.83,3.24,3.17s1.05,2.87,1.05,4.59-.35,3.23-1.05,4.56c-.7,1.33-1.78,2.36-3.22,3.12-1.45.75-3.3,1.13-5.55,1.13h-7.96v-3.18h7.84c1.55,0,2.8-.23,3.76-.68.95-.45,1.64-1.1,2.07-1.94.43-.84.65-1.84.65-3s-.22-2.18-.65-3.05-1.13-1.55-2.09-2.02c-.96-.48-2.22-.72-3.79-.72h-6.19v25.97h-3.52ZM639.31,665.77l7.16,13.07h-4.09l-7.05-13.07h3.98Z"/>
    <path d="M666.68,678.84v-29.09h9.83c2.27,0,4.14.39,5.6,1.16,1.46.77,2.54,1.83,3.24,3.17s1.05,2.87,1.05,4.59-.35,3.23-1.05,4.56c-.7,1.33-1.78,2.36-3.22,3.12-1.45.75-3.3,1.13-5.55,1.13h-7.96v-3.18h7.84c1.55,0,2.8-.23,3.76-.68.95-.45,1.64-1.1,2.07-1.94.43-.84.65-1.84.65-3s-.22-2.18-.65-3.05-1.13-1.55-2.09-2.02c-.96-.48-2.22-.72-3.79-.72h-6.19v25.97h-3.52ZM680.37,665.77l7.16,13.07h-4.09l-7.05-13.07h3.98Z"/>
    <path d="M694.36,678.84v-29.09h3.52v12.95h15.51v-12.95h3.52v29.09h-3.52v-13.01h-15.51v13.01h-3.52Z"/>
    <path d="M726.09,678.84v-29.09h17.56v3.12h-14.03v9.83h13.12v3.12h-13.12v9.89h14.26v3.12h-17.78Z"/>
    <path d="M755.65,649.75v29.09h-3.52v-29.09h3.52Z"/>
    <path d="M787.88,649.75v29.09h-3.41l-15.85-22.84h-.28v22.84h-3.52v-29.09h3.41l15.91,22.9h.28v-22.9h3.47Z"/>
    <path d="M812.96,657.02c-.17-1.44-.86-2.56-2.07-3.35-1.21-.79-2.7-1.19-4.46-1.19-1.29,0-2.41.21-3.37.62-.96.42-1.71.99-2.24,1.72-.54.73-.8,1.56-.8,2.49,0,.78.19,1.44.56,2,.37.55.85,1.01,1.44,1.38.59.36,1.2.66,1.85.89.64.23,1.24.42,1.78.56l2.95.79c.76.2,1.6.47,2.54.82.93.35,1.83.83,2.68,1.43.86.6,1.56,1.37,2.12,2.31s.84,2.09.84,3.45c0,1.57-.41,2.99-1.23,4.26-.82,1.27-2.01,2.28-3.58,3.03-1.57.75-3.47,1.12-5.7,1.12-2.08,0-3.88-.34-5.41-1.01-1.52-.67-2.71-1.61-3.58-2.81-.87-1.2-1.36-2.6-1.47-4.19h3.64c.09,1.1.47,2,1.12,2.72.65.72,1.47,1.25,2.47,1.59,1,.35,2.08.52,3.23.52,1.34,0,2.55-.22,3.62-.66s1.92-1.06,2.54-1.85c.62-.79.94-1.72.94-2.78,0-.97-.27-1.75-.81-2.36-.54-.61-1.25-1.1-2.13-1.48-.88-.38-1.83-.71-2.86-.99l-3.58-1.02c-2.27-.65-4.07-1.59-5.4-2.8-1.33-1.21-1.99-2.8-1.99-4.76,0-1.63.44-3.05,1.33-4.27.88-1.22,2.08-2.16,3.58-2.84,1.5-.68,3.18-1.02,5.04-1.02s3.54.33,5,1c1.46.67,2.62,1.58,3.47,2.73s1.31,2.47,1.36,3.93h-3.41Z"/>
    <path d="M823.09,652.87v-3.12h21.82v3.12h-9.15v25.97h-3.52v-25.97h-9.15Z"/>
    <path d="M852.48,678.84v-29.09h9.83c2.27,0,4.14.39,5.6,1.16,1.46.77,2.54,1.83,3.24,3.17s1.05,2.87,1.05,4.59-.35,3.23-1.05,4.56c-.7,1.33-1.78,2.36-3.22,3.12-1.45.75-3.3,1.13-5.55,1.13h-7.96v-3.18h7.84c1.55,0,2.8-.23,3.76-.68.95-.45,1.64-1.1,2.07-1.94.43-.84.65-1.84.65-3s-.22-2.18-.65-3.05-1.13-1.55-2.09-2.02c-.96-.48-2.22-.72-3.79-.72h-6.19v25.97h-3.52ZM866.17,665.77l7.16,13.07h-4.09l-7.05-13.07h3.98Z"/>
    <path d="M881.36,678.84h-3.69l10.68-29.09h3.64l10.68,29.09h-3.69l-8.69-24.49h-.23l-8.69,24.49ZM882.72,667.47h14.89v3.12h-14.89v-3.12Z"/>
    <path d="M925.24,657.02c-.17-1.44-.86-2.56-2.07-3.35-1.21-.79-2.7-1.19-4.46-1.19-1.29,0-2.41.21-3.37.62-.96.42-1.71.99-2.24,1.72-.54.73-.8,1.56-.8,2.49,0,.78.19,1.44.56,2,.37.55.85,1.01,1.44,1.38.59.36,1.2.66,1.85.89.64.23,1.24.42,1.78.56l2.95.79c.76.2,1.6.47,2.54.82.93.35,1.83.83,2.68,1.43.86.6,1.56,1.37,2.12,2.31s.84,2.09.84,3.45c0,1.57-.41,2.99-1.23,4.26-.82,1.27-2.01,2.28-3.58,3.03-1.57.75-3.47,1.12-5.7,1.12-2.08,0-3.88-.34-5.41-1.01-1.52-.67-2.71-1.61-3.58-2.81-.87-1.2-1.36-2.6-1.47-4.19h3.64c.09,1.1.47,2,1.12,2.72.65.72,1.47,1.25,2.47,1.59,1,.35,2.08.52,3.23.52,1.34,0,2.55-.22,3.62-.66s1.92-1.06,2.54-1.85c.62-.79.94-1.72.94-2.78,0-.97-.27-1.75-.81-2.36-.54-.61-1.25-1.1-2.13-1.48-.88-.38-1.83-.71-2.86-.99l-3.58-1.02c-2.27-.65-4.07-1.59-5.4-2.8-1.33-1.21-1.99-2.8-1.99-4.76,0-1.63.44-3.05,1.33-4.27.88-1.22,2.08-2.16,3.58-2.84,1.5-.68,3.18-1.02,5.04-1.02s3.54.33,5,1c1.46.67,2.62,1.58,3.47,2.73s1.31,2.47,1.36,3.93h-3.41Z"/>
    <path d="M952.87,657.02c-.17-1.44-.86-2.56-2.07-3.35-1.21-.79-2.7-1.19-4.46-1.19-1.29,0-2.41.21-3.37.62-.96.42-1.71.99-2.24,1.72-.54.73-.8,1.56-.8,2.49,0,.78.19,1.44.56,2,.37.55.85,1.01,1.44,1.38.59.36,1.2.66,1.85.89.64.23,1.24.42,1.78.56l2.95.79c.76.2,1.6.47,2.54.82.93.35,1.83.83,2.68,1.43.86.6,1.56,1.37,2.12,2.31s.84,2.09.84,3.45c0,1.57-.41,2.99-1.23,4.26-.82,1.27-2.01,2.28-3.58,3.03-1.57.75-3.47,1.12-5.7,1.12-2.08,0-3.88-.34-5.41-1.01-1.52-.67-2.71-1.61-3.58-2.81-.87-1.2-1.36-2.6-1.47-4.19h3.64c.09,1.1.47,2,1.12,2.72.65.72,1.47,1.25,2.47,1.59,1,.35,2.08.52,3.23.52,1.34,0,2.55-.22,3.62-.66s1.92-1.06,2.54-1.85c.62-.79.94-1.72.94-2.78,0-.97-.27-1.75-.81-2.36-.54-.61-1.25-1.1-2.13-1.48-.88-.38-1.83-.71-2.86-.99l-3.58-1.02c-2.27-.65-4.07-1.59-5.4-2.8-1.33-1.21-1.99-2.8-1.99-4.76,0-1.63.44-3.05,1.33-4.27.88-1.22,2.08-2.16,3.58-2.84,1.5-.68,3.18-1.02,5.04-1.02s3.54.33,5,1c1.46.67,2.62,1.58,3.47,2.73s1.31,2.47,1.36,3.93h-3.41Z"/>
    <path d="M964.59,678.84v-29.09h17.56v3.12h-14.03v9.83h13.12v3.12h-13.12v9.89h14.26v3.12h-17.78Z"/>
  </g>
  <g>
    <polygon class="cls-5" points="710.34 576.01 698.65 576 626.61 485.2 626.47 576.21 612.97 576.29 613.04 460.25 624.37 460.21 696.45 551.68 696.73 460.1 710.35 460.14 710.34 576.01"/>
    <path class="cls-5" d="M477.82,576.01l-17.17.24-33.67-44.95-24.08-.18-.02,45.01-14.12-.11.02-116.51,42.67-.02c7.67,0,15.21,1.5,22.15,4.09,12.84,5.63,19.56,17.18,19.86,30.98.39,18.1-11.68,33.06-30.21,35.85l34.57,45.6ZM438.61,518.93c12.26-.38,20.36-10.87,20.26-22.18,1.28-13.07-8.12-24.14-21.51-24.29l-34.47-.39-.05,48.34,6.91-.6,28.86-.89Z"/>
    <path class="cls-5" d="M900.98,551.6c19.6-9.75,34.66,4.67,51.28,1.22,16.6-3.44,24.41-34.88,13.2-56.81-9.16-17.92-28.09-26.58-47.72-25.35-24.18,1.52-42.8,18.82-45.18,43.03-1.59,16.14,3.99,31.53,16.3,41.68l-10.63,8.15c-14.63-12.3-21.24-30.48-19.83-49.65,1.27-17.38,10.45-34.73,26.18-45,31.2-20.37,77.75-11.67,94.51,23.13,7.87,16.35,7.53,34.79.97,51.58l-23.77,13.78c-9.82,5.69-21.08,6.07-31.64,2.55-9.74-3.24-19.21-2.51-28.35,1.74-4.83,2.25-8.5,5.95-15.33,5.5,5.28-7.16,12.49-11.8,20-15.54Z"/>
    <polygon class="cls-5" points="573.72 523.02 521.77 523.02 521.68 563.78 580.75 563.85 581.01 576.19 508.17 576.31 508.14 459.69 579.58 459.6 579.95 472.09 521.73 472.22 521.73 510.68 573.81 510.76 573.72 523.02"/>
    <polygon class="cls-5" points="349.12 512.05 349.27 524.36 297.49 524.39 297.39 575.63 283.48 575.4 283.47 458.41 354.59 458.41 354.86 471.45 297.46 471.28 297.38 511.99 349.12 512.05"/>
    <rect class="cls-3" x="134" y="457.56" width="122.48" height="20.85"/>
    <polygon class="cls-5" points="847 576.2 828.18 576.15 772.78 514.01 825.55 460.27 843.74 460.42 791.1 513.49 847 576.2"/>
    <rect class="cls-7" x="133.99" y="503.45" width="95.01" height="21.05"/>
    <rect class="cls-5" x="748.53" y="459.94" width="14.02" height="116.34"/>
    <polygon class="cls-6" points="177.79 571.86 134.03 571.75 134.1 550.2 177.72 550.27 177.79 571.86"/>
    <path class="cls-4" d="M889.59,571.14c9.19-8.49,21.34-8.96,32.18-5.28,16.86,5.72,35.37-2.85,52.06-12.55-3.28,7.22-9.51,11.31-15.89,15.47-20.5,11.85-45.39,13.72-68.35,2.36Z"/>
  </g>
</svg>