<?xml version="1.0" encoding="UTF-8"?>
<svg id="Ebene_1" data-name="Ebene 1" xmlns="http://www.w3.org/2000/svg" xmlns:xlink="http://www.w3.org/1999/xlink" viewBox="0 0 1101 732">
  <defs>
    <style>
      .cls-1 {
        fill: #404040;
      }

      .cls-2 {
        fill: url(#Unbenannter_Verlauf_63);
      }
    </style>
    <linearGradient id="Unbenannter_Verlauf_63" data-name="Unbenannter Verlauf 63" x1="372.17" y1="206.19" x2="728.83" y2="206.19" gradientUnits="userSpaceOnUse">
      <stop offset="0" stop-color="#c0a26e"/>
      <stop offset="1" stop-color="#bf9f6c"/>
    </linearGradient>
  </defs>
  <path class="cls-2" d="M550.5,27.86c-98.49,0-178.33,79.85-178.33,178.34s79.84,178.33,178.33,178.33,178.33-79.84,178.33-178.33S648.99,27.86,550.5,27.86ZM712.61,198.92l-81.89.03h-19.06l.31-35.32,95.18.04c2.8,12.04,5.36,23.04,5.46,35.25ZM418.24,299.86c-6.33-9.3-11.73-18.63-16.48-29.17-41.36-91.91,13.42-198.74,110.3-222.4,78.85-19.25,159.96,23.16,190.04,99.74l-106.2.12-.02,50.76-79.4.03v50.63s-81.47.04-81.47.04l-.07,50.02-16.7.23ZM595.97,265.27v34.58s-145.36.03-145.36.03v-34.59s145.36-.02,145.36-.02ZM464.65,343.69c-12.38-8.01-23.57-16.83-33.51-28.31l164.82-.04.05,47.15c-46.01,12.96-91.68,6.89-131.36-18.8ZM596.04,226.27l-.18,23.3-63.97.07v-35.17s58.85-.05,58.85-.05h5.3v11.85ZM611.77,356.82l-.05-142.24,35.5-.1.05,121.91c-11.04,8.5-22.52,14.98-35.5,20.43ZM670,315.65c-2.33,2.73-4.35,5.09-7.37,7.3l-.03-108.5,50,.07c-1.8,38.12-17.17,73.5-42.6,101.13Z"/>
  <g>
    <path class="cls-1" d="M218.41,466.73c0,7.03.21,12.8.63,17.3h-4.85c-1.13-10.83-2.53-18.88-4.22-24.16s-4.64-9.14-8.86-11.6c-4.22-2.46-10.69-3.69-19.41-3.69h-13.29c-5.06,0-8.76.39-11.08,1.16-2.32.77-3.9,2.36-4.75,4.75-.84,2.39-1.27,6.26-1.27,11.6v51.9h15.4c4.92,0,8.72-1.16,11.39-3.48,2.67-2.32,4.46-5.06,5.38-8.23.91-3.16,1.65-7.14,2.22-11.92l.63-4.22h4.85c-.42,5.91-.63,12.52-.63,19.83v10.13c0,7.17.42,17.16,1.27,29.96h-4.85c-.14-.98-.56-4.4-1.27-10.23-.71-5.83-2.64-10.23-5.8-13.19s-7.56-4.43-13.19-4.43h-15.4v48.53c0,5.35.56,9.21,1.69,11.6,1.12,2.39,3.09,4.01,5.91,4.85,2.81.84,7.38,1.41,13.71,1.69v4.22c-7.32-.42-17.65-.63-31.02-.63-12.1,0-21.1.21-27.01.63v-4.22c5.06-.28,8.76-.84,11.08-1.69,2.32-.84,3.9-2.46,4.75-4.85.84-2.39,1.27-6.26,1.27-11.6v-104.65c0-5.34-.42-9.21-1.27-11.6-.84-2.39-2.43-4.01-4.75-4.85-2.32-.84-6.01-1.4-11.08-1.69v-4.22c13.78.42,34.18.63,61.19.63,20.68,0,35.37-.21,44.1-.63-.99,9.99-1.48,18.99-1.48,27.01Z"/>
    <path class="cls-1" d="M380.87,578.55c-3.24,4.78-6.47,8.23-9.71,10.34-3.24,2.11-7.53,3.17-12.87,3.17-5.77,0-10.52-1.69-14.24-5.06-3.73-3.38-6.51-9.28-8.33-17.72l-4.64-21.1c-1.69-7.31-3.27-12.94-4.75-16.88-1.48-3.94-3.69-7.1-6.65-9.5-2.95-2.39-7.1-3.59-12.45-3.59h-20.04v48.53c0,5.35.42,9.21,1.27,11.6.84,2.39,2.43,4.01,4.75,4.85,2.32.84,6.01,1.41,11.08,1.69v4.22c-6.47-.42-15.4-.63-26.8-.63-12.1,0-21.1.21-27.01.63v-4.22c5.06-.28,8.76-.84,11.08-1.69,2.32-.84,3.9-2.46,4.75-4.85.84-2.39,1.27-6.26,1.27-11.6v-104.65c0-5.34-.42-9.21-1.27-11.6-.84-2.39-2.43-4.01-4.75-4.85-2.32-.84-6.01-1.4-11.08-1.69v-4.22c5.91.42,14.49.63,25.74.63l22.79-.21c2.67-.14,5.7-.21,9.07-.21,16.32,0,28.87,3.41,37.66,10.23,8.79,6.82,13.19,15.65,13.19,26.48,0,5.49-1.3,11.01-3.9,16.56-2.6,5.56-6.96,10.55-13.08,14.98-6.12,4.43-14.1,7.42-23.95,8.97l2.53.42c9.28,1.55,16.04,4.36,20.26,8.44,4.22,4.08,7.31,10.55,9.28,19.41l5.27,21.52c1.4,6.47,2.88,10.97,4.43,13.5,1.55,2.53,3.66,3.8,6.33,3.8,2.39,0,4.39-.63,6.01-1.9,1.62-1.27,3.48-3.3,5.59-6.12l3.17,2.32ZM292.99,445.41c-2.18.99-3.69,2.74-4.54,5.27-.84,2.53-1.27,6.33-1.27,11.39v51.9h14.14c13.93,0,23.49-3.09,28.7-9.28,5.2-6.19,7.81-14.77,7.81-25.74,0-11.53-2.74-20.26-8.23-26.16-5.49-5.91-14.42-8.86-26.8-8.86-4.36,0-7.63.49-9.81,1.48Z"/>
    <path class="cls-1" d="M512.53,589.1c-9.57-.42-25.67-.63-48.32-.63-27.01,0-47.4.21-61.19.63v-4.22c5.06-.28,8.76-.84,11.08-1.69,2.32-.84,3.9-2.46,4.75-4.85.84-2.39,1.27-6.26,1.27-11.6v-104.65c0-5.34-.42-9.21-1.27-11.6-.84-2.39-2.43-4.01-4.75-4.85-2.32-.84-6.01-1.4-11.08-1.69v-4.22c13.78.42,34.18.63,61.19.63,20.68,0,35.37-.21,44.1-.63-.99,9.28-1.48,17.58-1.48,24.9,0,5.49.21,9.85.63,13.08h-4.85c-.99-9.14-2.25-15.93-3.8-20.36-1.55-4.43-4.15-7.66-7.81-9.71-3.66-2.04-9.21-3.06-16.67-3.06h-17.51c-5.06,0-8.76.39-11.08,1.16-2.32.77-3.9,2.36-4.75,4.75-.84,2.39-1.27,6.26-1.27,11.6v49.79h13.93c4.92,0,8.72-1.16,11.39-3.48,2.67-2.32,4.46-5.06,5.38-8.23.91-3.17,1.65-7.14,2.22-11.92l.63-4.22h4.85c-.42,5.91-.63,12.52-.63,19.83v10.13c0,7.17.42,17.16,1.27,29.96h-4.85c-.14-.98-.56-4.4-1.27-10.23-.71-5.84-2.64-10.23-5.8-13.19-3.17-2.95-7.56-4.43-13.19-4.43h-13.93v50.64c0,5.35.42,9.21,1.27,11.6.84,2.39,2.43,3.98,4.75,4.75,2.32.77,6.01,1.16,11.08,1.16h15.4c8.72,0,15.37-1.16,19.94-3.48,4.57-2.32,7.91-6.05,10.02-11.18,2.11-5.13,3.66-12.69,4.64-22.68h4.85c-.42,3.8-.63,8.86-.63,15.19,0,8.02.49,17.02,1.48,27.01Z"/>
    <path class="cls-1" d="M679.85,443.94c-4.93.28-8.58,1.02-10.97,2.22-2.39,1.2-4.01,3.17-4.85,5.91-.84,2.74-1.27,6.79-1.27,12.13v125.96h-4.85l-88.62-136.93v111.4c0,5.49.46,9.57,1.37,12.24.91,2.67,2.71,4.61,5.38,5.8,2.67,1.2,6.82,1.94,12.45,2.22v4.22c-5.06-.42-12.24-.63-21.52-.63-8.44,0-14.98.21-19.62.63v-4.22c4.92-.28,8.58-1.02,10.97-2.22,2.39-1.19,4.01-3.17,4.85-5.91s1.27-6.78,1.27-12.13v-102.54c0-5.34-.42-9.21-1.27-11.6-.84-2.39-2.43-4.01-4.75-4.85-2.32-.84-6.01-1.4-11.08-1.69v-4.22c4.64.42,11.18.63,19.62.63,6.33,0,11.82-.21,16.46-.63l74.48,114.78v-90.3c0-5.49-.46-9.56-1.37-12.24-.92-2.67-2.71-4.61-5.38-5.8-2.67-1.19-6.82-1.93-12.45-2.22v-4.22c5.06.42,12.24.63,21.52.63,8.44,0,14.98-.21,19.62-.63v4.22Z"/>
    <path class="cls-1" d="M830.6,580.34c2.88,2.04,6.44,3.55,10.66,4.54v4.22c-6.75-.42-15.19-.63-25.32-.63-7.6,0-14.84.21-21.73.63v-4.22c3.38-.14,5.84-.56,7.38-1.27,1.55-.7,2.32-1.76,2.32-3.16s-.71-3.09-2.11-5.06l-30.8-46.42c-4.08-6.19-7.53-10.23-10.34-12.13-2.81-1.9-6.75-2.99-11.82-3.27v53.17c0,5.35.42,9.21,1.27,11.6.84,2.39,2.43,4.01,4.75,4.85,2.32.84,6.01,1.41,11.08,1.69v4.22c-6.47-.42-15.4-.63-26.8-.63-12.1,0-21.1.21-27.01.63v-4.22c5.06-.28,8.76-.84,11.08-1.69,2.32-.84,3.9-2.46,4.75-4.85.84-2.39,1.27-6.26,1.27-11.6v-104.65c0-5.34-.42-9.21-1.27-11.6-.84-2.39-2.43-4.01-4.75-4.85-2.32-.84-6.01-1.4-11.08-1.69v-4.22c5.91.42,14.91.63,27.01.63,11.25,0,20.18-.21,26.8-.63v4.22c-5.06.28-8.76.84-11.08,1.69-2.32.84-3.9,2.46-4.75,4.85-.84,2.39-1.27,6.26-1.27,11.6v47.26c10.27-.42,18.28-4.36,24.05-11.81l20.26-25.74c7.17-8.86,10.76-15.61,10.76-20.26,0-4.92-4.36-7.45-13.08-7.6v-4.22c8.02.42,16.1.63,24.26.63,7.73,0,13.71-.21,17.93-.63v4.22c-4.64.71-9,2.22-13.08,4.54-4.08,2.32-8.02,5.94-11.82,10.87l-34.39,44.1,48.95,68.57c2.39,3.52,5.03,6.3,7.91,8.33Z"/>
    <path class="cls-1" d="M960.15,445.84c10.06,6.05,17.86,14.81,23.42,26.27,5.56,11.47,8.33,25.14,8.33,41.04s-2.85,29.19-8.55,41.14c-5.7,11.96-13.64,21.24-23.84,27.85-10.2,6.61-21.77,9.92-34.71,9.92s-25.08-3.02-35.13-9.07c-10.06-6.05-17.87-14.8-23.42-26.27-5.56-11.46-8.33-25.14-8.33-41.04s2.85-29.19,8.54-41.14c5.7-11.95,13.64-21.24,23.84-27.85,10.2-6.61,21.76-9.92,34.71-9.92s25.07,3.03,35.13,9.07ZM900.44,449.95c-6.82,6.26-12.1,15.02-15.82,26.27-3.73,11.26-5.59,24.13-5.59,38.61s2.07,27.5,6.22,38.61c4.15,11.11,9.74,19.69,16.77,25.74,7.03,6.05,14.91,9.07,23.63,9.07s16.91-3.13,23.74-9.39c6.82-6.26,12.1-15.01,15.82-26.27,3.73-11.25,5.59-24.12,5.59-38.61s-2.08-27.5-6.22-38.61c-4.15-11.11-9.74-19.69-16.77-25.74-7.04-6.05-14.91-9.07-23.63-9.07s-16.92,3.13-23.74,9.39Z"/>
  </g>
  <g>
    <path d="M121.65,649.74v29.09h-3.52v-29.09h3.52Z"/>
    <path d="M130.69,678.83v-29.09h3.52v12.95h15.51v-12.95h3.52v29.09h-3.52v-13.01h-15.51v13.01h-3.52Z"/>
    <path d="M162.3,678.83v-29.09h9.83c2.27,0,4.14.39,5.6,1.16,1.46.77,2.54,1.83,3.24,3.17s1.05,2.87,1.05,4.59-.35,3.23-1.05,4.56c-.7,1.33-1.78,2.36-3.22,3.12-1.45.75-3.3,1.13-5.55,1.13h-7.96v-3.18h7.84c1.55,0,2.8-.23,3.76-.68.95-.45,1.64-1.1,2.07-1.94.43-.84.65-1.84.65-3s-.22-2.18-.65-3.05-1.13-1.55-2.09-2.02c-.96-.48-2.22-.72-3.79-.72h-6.19v25.97h-3.52ZM175.99,665.77l7.16,13.07h-4.09l-7.05-13.07h3.98Z"/>
    <path d="M203.11,678.83v-29.09h3.52v25.97h13.52v3.12h-17.05Z"/>
    <path d="M252.16,664.29c0,3.07-.55,5.72-1.66,7.96s-2.63,3.96-4.56,5.17c-1.93,1.21-4.14,1.82-6.62,1.82s-4.69-.61-6.62-1.82c-1.93-1.21-3.45-2.93-4.56-5.17-1.11-2.24-1.66-4.89-1.66-7.96s.55-5.72,1.66-7.95c1.11-2.23,2.63-3.96,4.56-5.17,1.93-1.21,4.14-1.82,6.62-1.82s4.69.61,6.62,1.82c1.93,1.21,3.45,2.94,4.56,5.17,1.11,2.24,1.66,4.89,1.66,7.95ZM248.75,664.29c0-2.52-.42-4.64-1.26-6.38-.84-1.73-1.97-3.04-3.4-3.94-1.42-.89-3.02-1.33-4.78-1.33s-3.35.45-4.78,1.33c-1.42.89-2.56,2.2-3.39,3.94-.84,1.73-1.26,3.86-1.26,6.38s.42,4.65,1.26,6.38c.84,1.73,1.97,3.04,3.39,3.93,1.43.89,3.02,1.34,4.78,1.34s3.35-.45,4.78-1.34c1.43-.89,2.56-2.2,3.4-3.93.84-1.73,1.26-3.86,1.26-6.38Z"/>
    <path d="M279.96,658.83c-.31-.96-.72-1.82-1.23-2.58-.51-.76-1.11-1.41-1.8-1.95-.7-.54-1.48-.95-2.36-1.24-.88-.28-1.85-.43-2.9-.43-1.72,0-3.29.45-4.7,1.33-1.41.89-2.53,2.2-3.37,3.94-.83,1.73-1.25,3.86-1.25,6.38s.42,4.65,1.26,6.38c.84,1.73,1.98,3.04,3.42,3.93,1.44.89,3.06,1.34,4.86,1.34,1.67,0,3.14-.36,4.41-1.07,1.27-.72,2.27-1.73,2.98-3.04s1.07-2.86,1.07-4.64l1.08.23h-8.75v-3.12h11.08v3.12c0,2.4-.51,4.48-1.53,6.25-1.02,1.77-2.42,3.14-4.2,4.11s-3.83,1.46-6.14,1.46c-2.58,0-4.84-.61-6.78-1.82-1.95-1.21-3.46-2.93-4.55-5.17s-1.63-4.89-1.63-7.96c0-2.3.31-4.37.93-6.21s1.5-3.41,2.64-4.71c1.14-1.3,2.48-2.29,4.03-2.98,1.55-.69,3.26-1.04,5.13-1.04,1.53,0,2.97.23,4.3.69,1.33.46,2.52,1.11,3.57,1.95,1.05.84,1.92,1.84,2.62,3,.7,1.16,1.18,2.45,1.45,3.86h-3.64Z"/>
    <path d="M291.78,678.83v-29.09h17.56v3.12h-14.03v9.83h13.12v3.12h-13.12v9.89h14.26v3.12h-17.78Z"/>
    <path d="M340.77,649.74v29.09h-3.41l-15.85-22.84h-.28v22.84h-3.52v-29.09h3.41l15.91,22.9h.28v-22.9h3.47Z"/>
    <path d="M349.82,678.83v-29.09h9.83c2.28,0,4.15.41,5.6,1.23,1.45.82,2.53,1.92,3.23,3.32.7,1.39,1.05,2.95,1.05,4.66s-.35,3.27-1.04,4.67c-.7,1.4-1.77,2.52-3.22,3.34-1.45.83-3.31,1.24-5.57,1.24h-7.05v-3.12h6.93c1.56,0,2.82-.27,3.76-.81s1.64-1.27,2.07-2.19c.43-.92.65-1.97.65-3.13s-.21-2.21-.65-3.12c-.43-.92-1.12-1.64-2.08-2.17-.96-.53-2.23-.79-3.81-.79h-6.19v25.97h-3.52Z"/>
    <path d="M377.21,678.83v-29.09h3.52v25.97h13.52v3.12h-17.05Z"/>
    <path d="M402.91,678.83h-3.69l10.68-29.09h3.64l10.68,29.09h-3.69l-8.69-24.49h-.23l-8.69,24.49ZM404.27,667.47h14.89v3.12h-14.89v-3.12Z"/>
    <path d="M429.17,652.87v-3.12h21.82v3.12h-9.15v25.97h-3.52v-25.97h-9.15Z"/>
    <path d="M457.48,678.83v-2.56l15.68-23.41h-15.85v-3.12h20.06v2.56l-15.68,23.41h15.85v3.12h-20.06Z"/>
    <path d="M499.89,678.83h-3.69l10.68-29.09h3.64l10.68,29.09h-3.69l-8.69-24.49h-.23l-8.69,24.49ZM501.25,667.47h14.89v3.12h-14.89v-3.12Z"/>
    <path d="M546.83,649.74h3.52v19.26c0,1.99-.47,3.76-1.4,5.32s-2.25,2.78-3.94,3.68c-1.7.89-3.68,1.34-5.97,1.34s-4.27-.45-5.97-1.34-3.01-2.12-3.94-3.68-1.4-3.33-1.4-5.32v-19.26h3.52v18.98c0,1.42.31,2.68.94,3.79s1.52,1.97,2.68,2.6,2.55.94,4.17.94,3.01-.31,4.18-.94,2.06-1.5,2.68-2.6c.62-1.1.93-2.37.93-3.79v-18.98Z"/>
    <path d="M559.4,678.83v-29.09h17.44v3.12h-13.92v9.83h12.61v3.12h-12.61v13.01h-3.52Z"/>
    <path d="M607.09,678.83h-8.98v-29.09h9.38c2.82,0,5.24.58,7.24,1.74,2.01,1.16,3.55,2.82,4.62,4.99,1.07,2.16,1.6,4.75,1.6,7.76s-.54,5.64-1.62,7.82c-1.08,2.18-2.65,3.86-4.72,5.03-2.06,1.17-4.57,1.75-7.53,1.75ZM601.63,675.71h5.23c2.41,0,4.4-.46,5.98-1.39,1.58-.93,2.76-2.25,3.54-3.96.78-1.71,1.16-3.75,1.16-6.12s-.38-4.37-1.15-6.07c-.77-1.7-1.91-3.01-3.44-3.92-1.52-.91-3.42-1.37-5.7-1.37h-5.62v22.84Z"/>
    <path d="M628.86,678.83v-29.09h17.56v3.12h-14.03v9.83h13.12v3.12h-13.12v9.89h14.26v3.12h-17.78Z"/>
    <path d="M654.78,678.83v-29.09h9.83c2.27,0,4.14.39,5.6,1.16,1.46.77,2.54,1.83,3.24,3.17s1.05,2.87,1.05,4.59-.35,3.23-1.05,4.56c-.7,1.33-1.78,2.36-3.22,3.12-1.45.75-3.3,1.13-5.55,1.13h-7.96v-3.18h7.84c1.55,0,2.8-.23,3.76-.68.95-.45,1.64-1.1,2.07-1.94.43-.84.65-1.84.65-3s-.22-2.18-.65-3.05-1.13-1.55-2.09-2.02c-.96-.48-2.22-.72-3.79-.72h-6.19v25.97h-3.52ZM668.48,665.77l7.16,13.07h-4.09l-7.05-13.07h3.98Z"/>
    <path d="M711.51,657.02c-.17-1.44-.86-2.56-2.07-3.35-1.21-.79-2.7-1.19-4.46-1.19-1.29,0-2.41.21-3.37.62-.96.42-1.71.99-2.24,1.72-.54.73-.8,1.56-.8,2.49,0,.78.19,1.44.56,2,.37.55.85,1.01,1.44,1.38.59.36,1.2.66,1.85.89.64.23,1.24.42,1.78.56l2.95.79c.76.2,1.6.47,2.54.82.93.35,1.83.83,2.68,1.43.86.6,1.56,1.37,2.12,2.31s.84,2.09.84,3.45c0,1.57-.41,2.99-1.23,4.26-.82,1.27-2.01,2.28-3.58,3.03-1.57.75-3.47,1.12-5.7,1.12-2.08,0-3.88-.34-5.41-1.01-1.52-.67-2.71-1.61-3.58-2.81-.87-1.2-1.36-2.6-1.47-4.19h3.64c.09,1.1.47,2,1.12,2.72.65.72,1.47,1.25,2.47,1.59,1,.35,2.08.52,3.23.52,1.34,0,2.55-.22,3.62-.66s1.92-1.06,2.54-1.85c.62-.79.94-1.72.94-2.78,0-.97-.27-1.75-.81-2.36-.54-.61-1.25-1.1-2.13-1.48-.88-.38-1.83-.71-2.86-.99l-3.58-1.02c-2.27-.65-4.07-1.59-5.4-2.8-1.33-1.21-1.99-2.8-1.99-4.76,0-1.63.44-3.05,1.33-4.27.88-1.22,2.08-2.16,3.58-2.84,1.5-.68,3.18-1.02,5.04-1.02s3.54.33,5,1c1.46.67,2.62,1.58,3.47,2.73s1.31,2.47,1.36,3.93h-3.41Z"/>
    <path d="M747.66,664.29c0,3.07-.55,5.72-1.66,7.96s-2.63,3.96-4.56,5.17c-1.93,1.21-4.14,1.82-6.62,1.82s-4.69-.61-6.62-1.82c-1.93-1.21-3.45-2.93-4.56-5.17-1.11-2.24-1.66-4.89-1.66-7.96s.55-5.72,1.66-7.95c1.11-2.23,2.63-3.96,4.56-5.17,1.93-1.21,4.14-1.82,6.62-1.82s4.69.61,6.62,1.82c1.93,1.21,3.45,2.94,4.56,5.17,1.11,2.24,1.66,4.89,1.66,7.95ZM744.25,664.29c0-2.52-.42-4.64-1.26-6.38-.84-1.73-1.97-3.04-3.4-3.94-1.42-.89-3.02-1.33-4.78-1.33s-3.35.45-4.78,1.33c-1.42.89-2.56,2.2-3.39,3.94-.84,1.73-1.26,3.86-1.26,6.38s.42,4.65,1.26,6.38c.84,1.73,1.97,3.04,3.39,3.93,1.43.89,3.02,1.34,4.78,1.34s3.35-.45,4.78-1.34c1.43-.89,2.56-2.2,3.4-3.93.84-1.73,1.26-3.86,1.26-6.38Z"/>
    <path d="M778.63,649.74v29.09h-3.41l-15.85-22.84h-.28v22.84h-3.52v-29.09h3.41l15.91,22.9h.28v-22.9h3.47Z"/>
    <path d="M810.75,649.74v29.09h-3.41l-15.85-22.84h-.28v22.84h-3.52v-29.09h3.41l15.91,22.9h.28v-22.9h3.47Z"/>
    <path d="M819.79,678.83v-29.09h17.56v3.12h-14.03v9.83h13.12v3.12h-13.12v9.89h14.26v3.12h-17.78Z"/>
    <path d="M868.78,649.74v29.09h-3.41l-15.85-22.84h-.28v22.84h-3.52v-29.09h3.41l15.91,22.9h.28v-22.9h3.47Z"/>
    <path d="M893.73,657.02c-.17-1.44-.86-2.56-2.07-3.35-1.21-.79-2.7-1.19-4.46-1.19-1.29,0-2.41.21-3.37.62-.96.42-1.71.99-2.24,1.72-.54.73-.8,1.56-.8,2.49,0,.78.19,1.44.56,2,.37.55.85,1.01,1.44,1.38.59.36,1.2.66,1.85.89.64.23,1.24.42,1.78.56l2.95.79c.76.2,1.6.47,2.54.82.93.35,1.83.83,2.68,1.43.86.6,1.56,1.37,2.12,2.31s.84,2.09.84,3.45c0,1.57-.41,2.99-1.23,4.26-.82,1.27-2.01,2.28-3.58,3.03-1.57.75-3.47,1.12-5.7,1.12-2.08,0-3.88-.34-5.41-1.01-1.52-.67-2.71-1.61-3.58-2.81-.87-1.2-1.36-2.6-1.47-4.19h3.64c.09,1.1.47,2,1.12,2.72.65.72,1.47,1.25,2.47,1.59,1,.35,2.08.52,3.23.52,1.34,0,2.55-.22,3.62-.66s1.92-1.06,2.54-1.85c.62-.79.94-1.72.94-2.78,0-.97-.27-1.75-.81-2.36-.54-.61-1.25-1.1-2.13-1.48-.88-.38-1.83-.71-2.86-.99l-3.58-1.02c-2.27-.65-4.07-1.59-5.4-2.8-1.33-1.21-1.99-2.8-1.99-4.76,0-1.63.44-3.05,1.33-4.27.88-1.22,2.08-2.16,3.58-2.84,1.5-.68,3.18-1.02,5.04-1.02s3.54.33,5,1c1.46.67,2.62,1.58,3.47,2.73s1.31,2.47,1.36,3.93h-3.41Z"/>
    <path d="M905.34,678.83v-29.09h17.56v3.12h-14.03v9.83h13.12v3.12h-13.12v9.89h14.26v3.12h-17.78Z"/>
    <path d="M934.78,649.74v29.09h-3.52v-29.09h3.52Z"/>
    <path d="M942.23,652.87v-3.12h21.82v3.12h-9.15v25.97h-3.52v-25.97h-9.15Z"/>
    <path d="M971.51,678.83v-29.09h17.56v3.12h-14.03v9.83h13.12v3.12h-13.12v9.89h14.26v3.12h-17.78Z"/>
  </g>
</svg>