<?xml version="1.0" encoding="UTF-8"?>
<svg id="Ebene_1" data-name="Ebene 1" xmlns="http://www.w3.org/2000/svg" xmlns:xlink="http://www.w3.org/1999/xlink" viewBox="0 0 1101 732">
  <defs>
    <style>
      .cls-1 {
        fill: url(#Unbenannter_Verlauf_128-4);
      }

      .cls-2 {
        fill: url(#Unbenannter_Verlauf_116);
      }

      .cls-3 {
        fill: url(#Unbenannter_Verlauf_128-3);
      }

      .cls-4 {
        fill: #c36241;
      }

      .cls-5 {
        fill: url(#Unbenannter_Verlauf_128-2);
      }

      .cls-6 {
        fill: #1e2229;
      }

      .cls-7 {
        fill: url(#Unbenannter_Verlauf_128);
      }
    </style>
    <linearGradient id="Unbenannter_Verlauf_128" data-name="Unbenannter Verlauf 128" x1="390.41" y1="311.91" x2="784.34" y2="311.91" gradientUnits="userSpaceOnUse">
      <stop offset="0" stop-color="#8ab396"/>
      <stop offset="1" stop-color="#4a5c4e"/>
    </linearGradient>
    <linearGradient id="Unbenannter_Verlauf_128-2" data-name="Unbenannter Verlauf 128" x1="335.36" y1="270.4" x2="561.09" y2="270.4" xlink:href="#Unbenannter_Verlauf_128"/>
    <linearGradient id="Unbenannter_Verlauf_128-3" data-name="Unbenannter Verlauf 128" x1="391.12" y1="270.33" x2="651.14" y2="270.33" xlink:href="#Unbenannter_Verlauf_128"/>
    <linearGradient id="Unbenannter_Verlauf_128-4" data-name="Unbenannter Verlauf 128" x1="335.33" y1="187.84" x2="469.94" y2="187.84" gradientTransform="translate(589.46 -215.26) rotate(89.86)" xlink:href="#Unbenannter_Verlauf_128"/>
    <linearGradient id="Unbenannter_Verlauf_116" data-name="Unbenannter Verlauf 116" x1="858.04" y1="521.76" x2="959.49" y2="521.76" gradientUnits="userSpaceOnUse">
      <stop offset="0" stop-color="#8ab396"/>
      <stop offset="1" stop-color="#4a5c4e"/>
    </linearGradient>
  </defs>
  <g>
    <path class="cls-4" d="M667.47,241.33l-89.03-.31-.29-42.08-92.81-.11c5.17-37.14,26.34-69.5,59.21-87.38,30.21-16.43,65.45-17.95,97.34-5.97,32.38,12.16,56.66,39.49,67.29,68.5,13.78,37.62,7.48,74.97-12.61,106.76l-28.99.16-.1-39.57Z"/>
    <g>
      <rect class="cls-7" x="390.41" y="299.42" width="393.93" height="24.98"/>
      <polygon class="cls-5" points="355.22 240.95 354.53 323.96 335.36 323.98 335.36 216.84 561.07 216.81 561.09 241.04 355.22 240.95"/>
      <rect class="cls-3" x="391.12" y="259.83" width="260.02" height="21"/>
      <rect class="cls-1" x="391.59" y="120.56" width="22.1" height="134.56" transform="translate(213.78 590) rotate(-89.86)"/>
    </g>
  </g>
  <g>
    <path d="M137.04,633.86h-8.98v-29.09h9.37c2.82,0,5.24.58,7.24,1.74,2.01,1.16,3.55,2.82,4.62,4.99,1.07,2.16,1.6,4.75,1.6,7.76s-.54,5.64-1.62,7.82c-1.08,2.18-2.65,3.86-4.72,5.03-2.06,1.17-4.57,1.75-7.53,1.75ZM131.58,630.73h5.23c2.41,0,4.4-.46,5.98-1.39,1.58-.93,2.76-2.25,3.54-3.96.78-1.71,1.16-3.75,1.16-6.12s-.38-4.37-1.15-6.07c-.77-1.7-1.91-3.01-3.44-3.92-1.52-.91-3.42-1.37-5.7-1.37h-5.62v22.84Z"/>
    <path d="M160.12,633.86h-3.69l10.68-29.09h3.64l10.68,29.09h-3.69l-8.69-24.49h-.23l-8.69,24.49ZM161.49,622.5h14.89v3.12h-14.89v-3.12Z"/>
    <path d="M204.01,612.04c-.17-1.44-.86-2.56-2.07-3.35-1.21-.79-2.7-1.19-4.46-1.19-1.29,0-2.41.21-3.37.62-.96.42-1.71.99-2.24,1.72-.54.73-.8,1.56-.8,2.49,0,.78.19,1.44.56,2,.37.55.85,1.01,1.44,1.38.59.36,1.2.66,1.85.89.64.23,1.24.42,1.78.56l2.95.79c.76.2,1.6.47,2.54.82.93.35,1.83.83,2.68,1.43.86.6,1.56,1.37,2.12,2.31s.84,2.09.84,3.45c0,1.57-.41,2.99-1.23,4.26-.82,1.27-2.01,2.28-3.58,3.03-1.57.75-3.47,1.12-5.7,1.12-2.08,0-3.88-.34-5.41-1.01-1.52-.67-2.71-1.61-3.58-2.81-.87-1.2-1.36-2.6-1.47-4.19h3.64c.09,1.1.47,2,1.12,2.72.65.72,1.47,1.25,2.47,1.59,1,.35,2.08.52,3.23.52,1.34,0,2.55-.22,3.62-.66s1.92-1.06,2.54-1.85c.62-.79.94-1.72.94-2.78,0-.97-.27-1.75-.81-2.36-.54-.61-1.25-1.1-2.13-1.48-.88-.38-1.83-.71-2.86-.99l-3.58-1.02c-2.27-.65-4.07-1.59-5.4-2.8-1.33-1.21-1.99-2.8-1.99-4.76,0-1.63.44-3.05,1.33-4.27.88-1.22,2.08-2.16,3.58-2.84,1.5-.68,3.18-1.02,5.04-1.02s3.54.33,5,1c1.46.67,2.62,1.58,3.47,2.73s1.31,2.47,1.36,3.93h-3.41Z"/>
    <path d="M252.17,604.77v29.09h-3.41l-15.85-22.84h-.28v22.84h-3.52v-29.09h3.41l15.91,22.9h.28v-22.9h3.47Z"/>
    <path d="M261.33,633.86v-29.09h17.56v3.12h-14.03v9.83h13.12v3.12h-13.12v9.89h14.26v3.12h-17.78Z"/>
    <path d="M306.46,604.77h3.52v19.26c0,1.99-.47,3.76-1.4,5.32s-2.25,2.78-3.94,3.68c-1.7.89-3.68,1.34-5.97,1.34s-4.27-.45-5.97-1.34-3.01-2.12-3.94-3.68-1.4-3.33-1.4-5.32v-19.26h3.52v18.98c0,1.42.31,2.68.94,3.79s1.52,1.97,2.68,2.6,2.55.94,4.17.94,3.01-.31,4.18-.94,2.06-1.5,2.68-2.6c.62-1.1.93-2.37.93-3.79v-18.98Z"/>
    <path d="M319.15,633.86v-29.09h17.56v3.12h-14.03v9.83h13.12v3.12h-13.12v9.89h14.26v3.12h-17.78Z"/>
    <path d="M358.56,633.86v-29.09h3.52v12.95h15.51v-12.95h3.52v29.09h-3.52v-13.01h-15.51v13.01h-3.52Z"/>
    <path d="M390.28,633.86v-29.09h17.56v3.12h-14.03v9.83h13.12v3.12h-13.12v9.89h14.26v3.12h-17.78Z"/>
    <path d="M416.32,633.86v-29.09h9.83c2.27,0,4.14.39,5.6,1.16,1.46.77,2.54,1.83,3.24,3.17s1.05,2.87,1.05,4.59-.35,3.23-1.05,4.56c-.7,1.33-1.78,2.36-3.22,3.12-1.45.75-3.3,1.13-5.55,1.13h-7.96v-3.18h7.84c1.55,0,2.8-.23,3.76-.68.95-.45,1.64-1.1,2.07-1.94.43-.84.65-1.84.65-3s-.22-2.18-.65-3.05-1.13-1.55-2.09-2.02c-.96-.48-2.22-.72-3.79-.72h-6.19v25.97h-3.52ZM430.02,620.79l7.16,13.07h-4.09l-7.05-13.07h3.98Z"/>
    <path d="M443.04,633.86v-2.56l15.68-23.41h-15.85v-3.12h20.06v2.56l-15.68,23.41h15.85v3.12h-20.06Z"/>
    <path d="M485.69,633.86h-3.69l10.68-29.09h3.64l10.68,29.09h-3.69l-8.69-24.49h-.23l-8.69,24.49ZM487.06,622.5h14.89v3.12h-14.89v-3.12Z"/>
    <path d="M536.73,604.77v29.09h-3.41l-15.85-22.84h-.28v22.84h-3.52v-29.09h3.41l15.91,22.9h.28v-22.9h3.47Z"/>
    <path d="M568.25,633.86h-8.98v-29.09h9.37c2.82,0,5.24.58,7.24,1.74,2.01,1.16,3.55,2.82,4.62,4.99,1.07,2.16,1.6,4.75,1.6,7.76s-.54,5.64-1.62,7.82c-1.08,2.18-2.65,3.86-4.72,5.03-2.06,1.17-4.57,1.75-7.53,1.75ZM562.79,630.73h5.23c2.41,0,4.4-.46,5.98-1.39,1.58-.93,2.76-2.25,3.54-3.96.78-1.71,1.16-3.75,1.16-6.12s-.38-4.37-1.15-6.07c-.77-1.7-1.91-3.01-3.44-3.92-1.52-.91-3.42-1.37-5.7-1.37h-5.62v22.84Z"/>
    <path d="M590.14,633.86v-29.09h17.56v3.12h-14.03v9.83h13.12v3.12h-13.12v9.89h14.26v3.12h-17.78Z"/>
    <path d="M616.18,633.86v-29.09h9.83c2.27,0,4.14.39,5.6,1.16,1.46.77,2.54,1.83,3.24,3.17s1.05,2.87,1.05,4.59-.35,3.23-1.05,4.56c-.7,1.33-1.78,2.36-3.22,3.12-1.45.75-3.3,1.13-5.55,1.13h-7.96v-3.18h7.84c1.55,0,2.8-.23,3.76-.68.95-.45,1.64-1.1,2.07-1.94.43-.84.65-1.84.65-3s-.22-2.18-.65-3.05-1.13-1.55-2.09-2.02c-.96-.48-2.22-.72-3.79-.72h-6.19v25.97h-3.52ZM629.87,620.79l7.16,13.07h-4.09l-7.05-13.07h3.98Z"/>
    <path d="M657.24,633.86v-29.09h9.83c2.27,0,4.14.39,5.6,1.16,1.46.77,2.54,1.83,3.24,3.17s1.05,2.87,1.05,4.59-.35,3.23-1.05,4.56c-.7,1.33-1.78,2.36-3.22,3.12-1.45.75-3.3,1.13-5.55,1.13h-7.96v-3.18h7.84c1.55,0,2.8-.23,3.76-.68.95-.45,1.64-1.1,2.07-1.94.43-.84.65-1.84.65-3s-.22-2.18-.65-3.05-1.13-1.55-2.09-2.02c-.96-.48-2.22-.72-3.79-.72h-6.19v25.97h-3.52ZM670.93,620.79l7.16,13.07h-4.09l-7.05-13.07h3.98Z"/>
    <path d="M684.92,633.86v-29.09h3.52v12.95h15.51v-12.95h3.52v29.09h-3.52v-13.01h-15.51v13.01h-3.52Z"/>
    <path d="M716.65,633.86v-29.09h17.56v3.12h-14.03v9.83h13.12v3.12h-13.12v9.89h14.26v3.12h-17.78Z"/>
    <path d="M746.21,604.77v29.09h-3.52v-29.09h3.52Z"/>
    <path d="M778.44,604.77v29.09h-3.41l-15.85-22.84h-.28v22.84h-3.52v-29.09h3.41l15.91,22.9h.28v-22.9h3.47Z"/>
    <path d="M803.52,612.04c-.17-1.44-.86-2.56-2.07-3.35-1.21-.79-2.7-1.19-4.46-1.19-1.29,0-2.41.21-3.37.62-.96.42-1.71.99-2.24,1.72-.54.73-.8,1.56-.8,2.49,0,.78.19,1.44.56,2,.37.55.85,1.01,1.44,1.38.59.36,1.2.66,1.85.89.64.23,1.24.42,1.78.56l2.95.79c.76.2,1.6.47,2.54.82.93.35,1.83.83,2.68,1.43.86.6,1.56,1.37,2.12,2.31s.84,2.09.84,3.45c0,1.57-.41,2.99-1.23,4.26-.82,1.27-2.01,2.28-3.58,3.03-1.57.75-3.47,1.12-5.7,1.12-2.08,0-3.88-.34-5.41-1.01-1.52-.67-2.71-1.61-3.58-2.81-.87-1.2-1.36-2.6-1.47-4.19h3.64c.09,1.1.47,2,1.12,2.72.65.72,1.47,1.25,2.47,1.59,1,.35,2.08.52,3.23.52,1.34,0,2.55-.22,3.62-.66s1.92-1.06,2.54-1.85c.62-.79.94-1.72.94-2.78,0-.97-.27-1.75-.81-2.36-.54-.61-1.25-1.1-2.13-1.48-.88-.38-1.83-.71-2.86-.99l-3.58-1.02c-2.27-.65-4.07-1.59-5.4-2.8-1.33-1.21-1.99-2.8-1.99-4.76,0-1.63.44-3.05,1.33-4.27.88-1.22,2.08-2.16,3.58-2.84,1.5-.68,3.18-1.02,5.04-1.02s3.54.33,5,1c1.46.67,2.62,1.58,3.47,2.73s1.31,2.47,1.36,3.93h-3.41Z"/>
    <path d="M813.65,607.89v-3.12h21.82v3.12h-9.15v25.97h-3.52v-25.97h-9.15Z"/>
    <path d="M843.04,633.86v-29.09h9.83c2.27,0,4.14.39,5.6,1.16,1.46.77,2.54,1.83,3.24,3.17s1.05,2.87,1.05,4.59-.35,3.23-1.05,4.56c-.7,1.33-1.78,2.36-3.22,3.12-1.45.75-3.3,1.13-5.55,1.13h-7.96v-3.18h7.84c1.55,0,2.8-.23,3.76-.68.95-.45,1.64-1.1,2.07-1.94.43-.84.65-1.84.65-3s-.22-2.18-.65-3.05-1.13-1.55-2.09-2.02c-.96-.48-2.22-.72-3.79-.72h-6.19v25.97h-3.52ZM856.73,620.79l7.16,13.07h-4.09l-7.05-13.07h3.98Z"/>
    <path d="M871.92,633.86h-3.69l10.68-29.09h3.64l10.68,29.09h-3.69l-8.69-24.49h-.23l-8.69,24.49ZM873.28,622.5h14.89v3.12h-14.89v-3.12Z"/>
    <path d="M915.8,612.04c-.17-1.44-.86-2.56-2.07-3.35-1.21-.79-2.7-1.19-4.46-1.19-1.29,0-2.41.21-3.37.62-.96.42-1.71.99-2.24,1.72-.54.73-.8,1.56-.8,2.49,0,.78.19,1.44.56,2,.37.55.85,1.01,1.44,1.38.59.36,1.2.66,1.85.89.64.23,1.24.42,1.78.56l2.95.79c.76.2,1.6.47,2.54.82.93.35,1.83.83,2.68,1.43.86.6,1.56,1.37,2.12,2.31s.84,2.09.84,3.45c0,1.57-.41,2.99-1.23,4.26-.82,1.27-2.01,2.28-3.58,3.03-1.57.75-3.47,1.12-5.7,1.12-2.08,0-3.88-.34-5.41-1.01-1.52-.67-2.71-1.61-3.58-2.81-.87-1.2-1.36-2.6-1.47-4.19h3.64c.09,1.1.47,2,1.12,2.72.65.72,1.47,1.25,2.47,1.59,1,.35,2.08.52,3.23.52,1.34,0,2.55-.22,3.62-.66s1.92-1.06,2.54-1.85c.62-.79.94-1.72.94-2.78,0-.97-.27-1.75-.81-2.36-.54-.61-1.25-1.1-2.13-1.48-.88-.38-1.83-.71-2.86-.99l-3.58-1.02c-2.27-.65-4.07-1.59-5.4-2.8-1.33-1.21-1.99-2.8-1.99-4.76,0-1.63.44-3.05,1.33-4.27.88-1.22,2.08-2.16,3.58-2.84,1.5-.68,3.18-1.02,5.04-1.02s3.54.33,5,1c1.46.67,2.62,1.58,3.47,2.73s1.31,2.47,1.36,3.93h-3.41Z"/>
    <path d="M943.43,612.04c-.17-1.44-.86-2.56-2.07-3.35-1.21-.79-2.7-1.19-4.46-1.19-1.29,0-2.41.21-3.37.62-.96.42-1.71.99-2.24,1.72-.54.73-.8,1.56-.8,2.49,0,.78.19,1.44.56,2,.37.55.85,1.01,1.44,1.38.59.36,1.2.66,1.85.89.64.23,1.24.42,1.78.56l2.95.79c.76.2,1.6.47,2.54.82.93.35,1.83.83,2.68,1.43.86.6,1.56,1.37,2.12,2.31s.84,2.09.84,3.45c0,1.57-.41,2.99-1.23,4.26-.82,1.27-2.01,2.28-3.58,3.03-1.57.75-3.47,1.12-5.7,1.12-2.08,0-3.88-.34-5.41-1.01-1.52-.67-2.71-1.61-3.58-2.81-.87-1.2-1.36-2.6-1.47-4.19h3.64c.09,1.1.47,2,1.12,2.72.65.72,1.47,1.25,2.47,1.59,1,.35,2.08.52,3.23.52,1.34,0,2.55-.22,3.62-.66s1.92-1.06,2.54-1.85c.62-.79.94-1.72.94-2.78,0-.97-.27-1.75-.81-2.36-.54-.61-1.25-1.1-2.13-1.48-.88-.38-1.83-.71-2.86-.99l-3.58-1.02c-2.27-.65-4.07-1.59-5.4-2.8-1.33-1.21-1.99-2.8-1.99-4.76,0-1.63.44-3.05,1.33-4.27.88-1.22,2.08-2.16,3.58-2.84,1.5-.68,3.18-1.02,5.04-1.02s3.54.33,5,1c1.46.67,2.62,1.58,3.47,2.73s1.31,2.47,1.36,3.93h-3.41Z"/>
    <path d="M955.15,633.86v-29.09h17.56v3.12h-14.03v9.83h13.12v3.12h-13.12v9.89h14.26v3.12h-17.78Z"/>
  </g>
  <g>
    <polygon class="cls-6" points="642.16 533.8 628.08 533.78 541.32 424.43 541.16 534.04 524.89 534.13 524.98 394.39 538.62 394.33 625.43 504.5 625.77 394.2 642.17 394.24 642.16 533.8"/>
    <path class="cls-6" d="M362.12,533.79l-20.68.28-40.55-54.14-29-.22-.03,54.2-17.01-.13.02-140.32,51.39-.02c9.23,0,18.32,1.8,26.68,4.93,15.46,6.78,23.56,20.7,23.92,37.31.47,21.8-14.07,39.82-36.39,43.18l41.64,54.92ZM314.9,465.05c14.76-.45,24.52-13.09,24.4-26.71,1.55-15.74-9.78-29.07-25.91-29.25l-41.51-.47-.06,58.22,8.32-.72,34.76-1.07Z"/>
    <path class="cls-6" d="M871.75,504.4c23.6-11.74,41.74,5.62,61.76,1.47,20-4.14,29.4-42.01,15.9-68.41-11.03-21.58-33.83-32.02-57.47-30.53-29.12,1.83-51.55,22.66-54.42,51.82-1.91,19.44,4.81,37.97,19.63,50.2l-12.8,9.81c-17.62-14.82-25.57-36.71-23.88-59.79,1.54-20.93,12.59-41.83,31.53-54.2,37.57-24.54,93.63-14.06,113.82,27.85,9.48,19.69,9.07,41.9,1.16,62.12l-28.63,16.6c-11.82,6.85-25.39,7.31-38.1,3.08-11.73-3.9-23.14-3.03-34.14,2.1-5.82,2.71-10.23,7.17-18.46,6.62,6.35-8.62,15.04-14.21,24.09-18.71Z"/>
    <polygon class="cls-6" points="477.62 469.98 415.06 469.98 414.95 519.06 486.09 519.15 486.4 534.01 398.67 534.16 398.64 393.7 484.68 393.6 485.13 408.64 415 408.8 415.01 455.12 477.73 455.21 477.62 469.98"/>
    <polygon class="cls-6" points="207.13 456.77 207.31 471.59 144.95 471.63 144.82 533.34 128.08 533.07 128.06 392.17 213.71 392.17 214.03 407.87 144.91 407.66 144.81 456.69 207.13 456.77"/>
    <polygon class="cls-6" points="806.75 534.03 784.08 533.96 717.36 459.13 780.91 394.41 802.82 394.59 739.42 458.5 806.75 534.03"/>
    <rect class="cls-6" x="688.15" y="394.01" width="16.88" height="140.12"/>
    <path class="cls-2" d="M858.04,527.93c11.06-10.23,25.7-10.79,38.75-6.35,20.3,6.89,42.59-3.44,62.7-15.12-3.95,8.7-11.45,13.63-19.14,18.63-24.68,14.27-54.67,16.52-82.31,2.84Z"/>
  </g>
</svg>